<?xml version="1.0" encoding="UTF-8"?>
<!DOCTYPE svg PUBLIC "-//W3C//DTD SVG 1.1//EN" "http://www.w3.org/Graphics/SVG/1.1/DTD/svg11.dtd">
<!-- Creator: CorelDRAW -->
<svg xmlns="http://www.w3.org/2000/svg" xml:space="preserve" width="6.72in" height="6.72in" style="shape-rendering:geometricPrecision; text-rendering:geometricPrecision; image-rendering:optimizeQuality; fill-rule:evenodd; clip-rule:evenodd"
viewBox="0 0 6.72 6.72"
 xmlns:xlink="http://www.w3.org/1999/xlink">
 <defs>
  <style type="text/css">
   <![CDATA[
    .fil0 {fill:black}
    .fil1 {fill:#FFFFFE;fill-rule:nonzero}
   ]]>
  </style>
 </defs>
 <rect class="fil0" width="6.72" height="6.72" rx="1.28" ry="1.28"/>
 <g id="Layer_x0020_1">
  <metadata id="CorelCorpID_0Corel-Layer"/>
  <g id="_325664928">
   <path id="_325665000" class="fil1" d="M0.921799 0.8l4.8764 0c0.0441811,0 0.08,0.0358189 0.08,0.08l0 4.96c0,0.0441811 -0.0358189,0.08 -0.08,0.08l-4.8764 0c-0.0441811,0 -0.08,-0.0358189 -0.08,-0.08l0 -4.96c0,-0.0441811 0.0358189,-0.08 0.08,-0.08zm4.7964 0.16l-4.7164 0 0 4.8 4.7164 0 0 -4.8z"/>
   <path id="_325664976" class="fil1" d="M0.921799 1.74742c-0.0441811,0 -0.08,0.0358189 -0.08,0.08 0,0.0441811 0.0358189,0.08 0.08,0.08l4.8764 0c0.0441811,0 0.08,-0.0358189 0.08,-0.08 0,-0.0441811 -0.0358189,-0.08 -0.08,-0.08l-4.8764 0z"/>
   <path id="_325664472" class="fil1" d="M1.53838 1.74742l0.724953 0 0.702299 0c0.0441811,0 0.08,0.0358189 0.08,0.08l0 2.74123c0,0.0441811 -0.0358189,0.08 -0.08,0.08 -0.0250039,0 -0.0473307,-0.0114764 -0.062,-0.0294449l-0.65163 -0.695587 -0.655378 0.699594 0.000137795 0.000129921c-0.0302047,0.0322402 -0.0808346,0.0338937 -0.113075,0.00368898 -0.0168031,-0.0157441 -0.0252953,-0.0370354 -0.0252992,-0.0583819l-7.87402e-006 0 0 -2.74123c0,-0.0441811 0.0358189,-0.08 0.08,-0.08zm0.724953 0.16l-0.644953 0 0 2.4591 0.571567 -0.61013c0.00224409,-0.00275197 0.00469685,-0.00538976 0.0073622,-0.00788583 0.0322402,-0.0302047 0.0828701,-0.0285512 0.113075,0.00368898l-0.000137795 0.000129921 0.575386 0.614197 0 -2.4591 -0.622299 0z"/>
  </g>
 </g>
</svg>
